<svg xmlns="http://www.w3.org/2000/svg" viewBox="0 0 512 512" width="512" height="512">
  <g class="" transform="translate(0,0)" style="touch-action: none;">
    <path
      d="M256 23.05C127.5 23.05 23.05 127.5 23.05 256S127.5 488.9 256 488.9 488.9 384.5 488.9 256 384.5 23.05 256 23.05zm0 17.9c118.9 0 215.1 96.15 215.1 215.05S374.9 471.1 256 471.1c-118.9 0-215.05-96.2-215.05-215.1C40.95 137.1 137.1 40.95 256 40.95z"
      fill="#bbbbbb" fill-opacity="1"></path>
    <path
      d="M256 197.76c-32.2 0-58.24 26.04-58.24 58.24s26.04 58.24 58.24 58.24 58.24-26.04 58.24-58.24-26.04-58.24-58.24-58.24zm0 17.9c22.28 0 40.34 18.06 40.34 40.34s-18.06 40.34-40.34 40.34-40.34-18.06-40.34-40.34 18.06-40.34 40.34-40.34z"
      fill="#bbbbbb" fill-opacity="1"></path>
    <path
      d="M32 247.05h174.71v17.9H32z"
      fill="#bbbbbb" fill-opacity="1"></path>
    <path
      d="M305.29 247.05H480v17.9H305.29z"
      fill="#bbbbbb" fill-opacity="1"></path>
  </g>
</svg>